<?xml version="1.0" standalone="no"?>
<!DOCTYPE svg PUBLIC "-//W3C//DTD SVG 20010904//EN"
 "http://www.w3.org/TR/2001/REC-SVG-20010904/DTD/svg10.dtd">
<svg version="1.0" xmlns="http://www.w3.org/2000/svg"
 width="700.000000pt" height="700.000000pt" viewBox="0 0 700.000000 700.000000"
 preserveAspectRatio="xMidYMid meet">
<metadata>
Created by potrace 1.11, written by Peter Selinger 2001-2013
</metadata>
<g transform="translate(0.000000,700.000000) scale(0.100000,-0.100000)"
fill="#000000" stroke="none">
<path d="M3360 6989 c-19 -5 -45 -12 -56 -14 -70 -16 -177 -80 -247 -147 -50
-49 -124 -158 -134 -198 -3 -14 -9 -29 -13 -35 -7 -10 -14 -35 -26 -100 -3
-16 -7 -120 -8 -230 -3 -171 -6 -208 -24 -257 -70 -195 -270 -336 -487 -342
-171 -5 -242 30 -431 214 -150 146 -220 194 -329 226 -75 21 -93 24 -181 25
-278 2 -523 -203 -581 -486 -11 -56 -9 -180 4 -240 7 -33 32 -98 55 -144 36
-72 61 -103 190 -234 82 -83 159 -170 173 -193 29 -50 60 -164 59 -219 -3
-172 -101 -350 -237 -429 -91 -54 -117 -58 -349 -61 -273 -4 -348 -21 -478
-109 -307 -207 -346 -661 -78 -919 83 -80 167 -126 288 -158 25 -6 131 -13
235 -14 109 -1 209 -8 235 -15 207 -55 366 -266 375 -495 6 -163 -36 -251
-199 -416 -67 -68 -138 -145 -159 -170 -122 -152 -158 -390 -85 -574 57 -145
158 -256 293 -323 237 -118 506 -72 696 118 83 84 164 227 184 327 14 72 17
218 19 1218 1 589 5 1081 9 1095 4 13 9 42 12 65 15 104 65 254 127 382 27 56
56 107 64 113 8 7 14 17 14 22 0 20 117 167 195 244 165 165 350 278 567 349
259 84 542 94 803 28 500 -126 905 -527 1034 -1024 34 -133 48 -253 45 -399
-2 -137 -4 -149 -30 -278 -95 -462 -452 -874 -899 -1038 -52 -19 -134 -45
-158 -49 -10 -3 -26 -6 -35 -9 -21 -6 -77 -15 -157 -26 -62 -8 -338 -6 -352 3
-8 5 -53 13 -123 22 -84 10 -178 -52 -199 -132 -16 -60 -8 -1533 8 -1603 43
-181 146 -286 335 -340 96 -27 247 -22 345 13 166 59 292 178 359 339 40 96
44 129 47 343 2 195 10 238 57 326 59 112 192 217 323 255 84 25 231 23 307
-4 80 -29 124 -62 274 -209 185 -180 295 -239 461 -247 264 -12 490 130 591
371 45 106 56 258 27 368 -32 125 -78 196 -228 352 -110 115 -145 158 -167
207 -38 86 -51 147 -49 231 7 267 193 505 433 551 17 4 105 7 196 9 190 2 231
8 320 43 239 94 386 322 376 582 -10 227 -137 418 -344 518 -88 42 -166 54
-377 56 -233 3 -269 10 -375 80 -107 70 -198 204 -225 333 -13 59 -12 167 1
224 13 58 54 150 78 175 6 7 63 65 127 131 174 177 219 255 243 417 46 313
-158 603 -474 673 -45 10 -184 8 -240 -3 -36 -7 -103 -32 -149 -56 -71 -35
-104 -62 -220 -176 -158 -155 -195 -183 -282 -213 -269 -92 -595 79 -669 351
-8 26 -14 124 -15 235 -3 216 -10 258 -65 372 -69 141 -195 251 -350 303 -72
24 -239 35 -300 19z"/>
<path d="M3372 4010 c-101 -27 -166 -64 -243 -140 -257 -254 -183 -686 145
-844 81 -39 139 -51 242 -50 269 4 493 222 508 496 20 352 -313 626 -652 538z"/>
</g>
</svg>
