<?xml version="1.0" standalone="no"?>
<!DOCTYPE svg PUBLIC "-//W3C//DTD SVG 20010904//EN"
 "http://www.w3.org/TR/2001/REC-SVG-20010904/DTD/svg10.dtd">
<svg version="1.0" xmlns="http://www.w3.org/2000/svg"
 width="100" height="100" viewBox="0 0 100 100"
 preserveAspectRatio="xMidYMid meet">
<metadata>
Created by potrace 1.15, written by Peter Selinger 2001-2017
</metadata>
<g transform="translate(50,70) scale(0.4) rotate(-90) translate(-50,-50) scale(0.0076,0.0081)"
fill="#350e5f" stroke="#110022" stroke-width="200">
<path d="M6255 12043 c-798 -31 -1638 -195 -2367 -462 -322 -118 -738 -311
-1018 -471 -872 -501 -1596 -1245 -2124 -2183 -314 -558 -541 -1206 -650
-1862 -70 -421 -90 -664 -90 -1110 0 -516 31 -844 124 -1320 156 -797 478
-1563 966 -2302 235 -354 456 -625 759 -929 391 -393 727 -640 1160 -854 488
-241 928 -350 1537 -382 822 -43 1841 151 2954 562 1179 436 2055 954 2661
1574 316 322 522 620 696 1006 460 1022 551 2299 248 3490 -264 1036 -799
1860 -1676 2576 -542 444 -1230 828 -1860 1042 -671 227 -1524 238 -2346 32
-674 -169 -1433 -501 -2000 -875 -290 -191 -532 -390 -760 -621 -351 -359
-592 -729 -779 -1199 -398 -1000 -435 -2195 -99 -3189 336 -996 1130 -1913
2082 -2406 470 -243 907 -353 1457 -367 566 -14 1039 78 1540 299 939 414
2251 1315 2922 2006 226 233 277 316 303 488 77 509 -166 1379 -773 2764 -147
335 -310 681 -349 740 -20 30 -79 98 -132 151 -150 149 -309 259 -569 389
-419 211 -912 359 -1417 426 -185 25 -571 30 -725 10 -735 -97 -1452 -457
-2029 -1020 -573 -560 -867 -1155 -932 -1886 -14 -165 -6 -574 14 -710 35
-230 67 -370 123 -545 135 -416 305 -695 614 -1006 215 -217 401 -358 660
-504 236 -133 585 -265 700 -265 387 0 1586 543 2330 1056 373 257 480 383
580 681 78 235 106 440 97 722 -19 621 -272 1227 -661 1587 -312 289 -738 493
-1172 560 -145 22 -408 23 -529 1 -345 -62 -634 -217 -900 -482 -194 -193
-297 -356 -376 -598 -80 -244 -115 -485 -106 -747 11 -321 77 -528 229 -716
132 -163 392 -287 604 -289 81 0 96 3 149 30 83 42 118 100 123 201 8 145 -67
295 -202 404 -36 29 -82 76 -101 104 -168 245 -90 723 156 964 61 60 196 132
294 157 296 76 677 13 960 -158 166 -101 278 -218 355 -372 173 -348 150 -843
-59 -1281 -80 -167 -151 -266 -290 -404 -465 -462 -1198 -647 -1680 -424 -170
78 -380 247 -514 412 -320 394 -507 935 -507 1460 0 172 13 282 59 503 116
553 299 948 561 1209 230 230 441 336 1038 520 474 146 591 166 902 157 472
-14 886 -151 1265 -418 114 -81 347 -312 448 -446 517 -682 751 -1671 587
-2486 -122 -606 -424 -1172 -838 -1569 -454 -436 -1174 -781 -1867 -897 -238
-39 -317 -45 -595 -45 -310 1 -449 16 -692 78 -492 125 -982 404 -1388 790
-522 499 -835 1043 -1019 1776 -139 551 -156 1030 -55 1514 52 248 170 551
301 771 89 151 171 260 348 466 785 915 1380 1350 2085 1523 298 73 608 105
1217 127 824 30 1336 -47 1769 -266 311 -156 594 -380 930 -735 368 -388 590
-692 819 -1119 568 -1063 737 -2328 433 -3242 -179 -542 -511 -1045 -1005
-1529 -450 -441 -914 -762 -1398 -968 -774 -329 -1911 -582 -2842 -632 -209
-11 -448 0 -532 25 -143 43 -631 259 -942 416 -513 260 -858 497 -1160 799
-378 378 -570 721 -792 1415 -47 147 -292 973 -357 1205 -267 950 -385 1655
-351 2100 30 392 133 641 417 1015 46 61 147 193 225 295 77 102 199 273 271
380 212 316 336 469 563 695 377 377 828 696 1370 970 663 335 1379 562 2180
690 895 143 1579 175 2120 99 659 -93 1174 -325 1780 -802 295 -233 715 -720
1101 -1277 502 -725 852 -1450 963 -1995 33 -159 128 -853 170 -1240 54 -491
73 -930 52 -1185 -37 -434 -125 -713 -396 -1250 -197 -390 -544 -1053 -597
-1143 -253 -422 -637 -705 -1628 -1200 -217 -109 -496 -244 -620 -301 -240
-110 -301 -148 -372 -233 -115 -136 -170 -248 -176 -357 -3 -67 -1 -80 20
-111 110 -164 525 -98 1214 196 1180 502 2063 1195 2637 2070 147 224 285 480
361 670 236 593 394 1902 346 2854 -24 461 -73 777 -205 1316 -406 1655 -1141
2924 -2133 3682 -1045 799 -2590 1228 -4197 1165z"/>
</g>
</svg>
