<svg width="44" height="34" viewBox="-7 -7 58 48" fill="none" xmlns="http://www.w3.org/2000/svg">
<path d="M44 10.9631C43.2634 11.7599 42.4286 12.4602 41.5446 13.0639C37.4442 15.7926 33.3192 18.5455 29.317 21.3949C27.2545 22.892 24.7009 24.7273 22.0246 24.7273H22H21.9754C19.2991 24.7273 16.7455 22.892 14.683 21.3949C10.6808 18.5213 6.5558 15.7926 2.47991 13.0639C1.57143 12.4602 0.736607 11.7599 0 10.9631V30.1364C0 32.2614 1.76786 34 3.92857 34H40.0714C42.2321 34 44 32.2614 44 30.1364V10.9631ZM44 3.86364C44 1.73863 42.2076 0 40.0714 0H3.92857C1.30134 0 0 2.02841 0 4.39489C0 6.59233 2.47991 9.32102 4.22321 10.4801C8.02902 13.0881 11.8839 15.696 15.6897 18.3281C17.2857 19.4148 19.9866 21.6364 21.9754 21.6364H22H22.0246C24.0134 21.6364 26.7143 19.4148 28.3103 18.3281C32.1161 15.696 35.971 13.0881 39.8013 10.4801C41.9621 9.0071 44 6.56818 44 3.86364Z" fill="#ffe482" stroke="#110022" stroke-width="2.5"/>
</svg>
