<svg width="512" height="512" viewBox="0 0 32 32" xmlns="http://www.w3.org/2000/svg">
<path fill="#667799" d="M15.8904 0C14.3773 0 13.1507 1.22662 13.1507 2.73973V3.89656C13.1507 4.79241 12.532 5.56237 11.7079 5.91352C10.8695 6.27072 9.88309 6.16346 9.23871 5.51908L8.48334 4.76371C7.41341 3.69378 5.67871 3.69378 4.60878 4.76371C3.53885 5.83364 3.53885 7.56833 4.60878 8.63826L5.49557 9.52505C6.08882 10.1183 6.19752 11.0232 5.8756 11.798C5.55375 12.5726 4.83207 13.1507 3.99329 13.1507H2.73973C1.22662 13.1507 0 14.3773 0 15.8904C0 17.4035 1.22662 18.6301 2.73973 18.6301H3.80723C4.71838 18.6301 5.49726 19.2697 5.83952 20.1141C6.17609 20.9445 6.06079 21.9098 5.4272 22.5433L4.60879 23.3618C3.53887 24.4317 3.53887 26.1664 4.60879 27.2363C5.67872 28.3062 7.41342 28.3062 8.48335 27.2363C9.08529 26.6483 9.42466 25.8424 9.42466 25.001C9.42466 22.0007 9.42466 19.0003 9.42466 16C9.42466 15.5356 9.4728 15.0824 9.56437 14.6453C9.73426 13.8341 10.0536 13.078 10.4923 12.4069C10.9614 11.6894 11.5668 11.0691 12.2719 10.5829C12.976 10.0975 13.7793 9.74575 14.6453 9.56437C15.0824 9.4728 15.5356 9.42466 16 9.42466C16.4081 9.42466 16.8076 9.46184 17.1951 9.533C18.0667 9.69304 18.8781 10.0249 19.593 10.4922C20.3106 10.9613 20.9309 11.5669 21.4171 12.272C21.9025 12.976 22.2543 13.7793 22.4356 14.6453C22.5272 15.0824 22.5753 15.5356 22.5753 16C22.5753 16.4081 22.5382 16.8076 22.467 17.1951C22.2968 18.122 21.9322 18.9809 21.4171 19.728C20.9309 20.4331 20.3106 21.0387 19.593 21.5077C18.8781 21.9751 18.0667 22.307 17.1951 22.467C16.8076 22.5382 16.4081 22.5753 16 22.5753C15.5356 22.5753 15.0824 22.5272 14.6453 22.4356C14.1265 22.327 13.589 22.6932 13.589 23.2232V29.5247C13.589 30.3228 13.7766 31.1767 14.4562 31.5951C14.8734 31.8519 15.3646 32 15.8904 32C17.4035 32 18.6301 30.7734 18.6301 29.2603V28.1928C18.6301 27.2816 19.2697 26.5027 20.1141 26.1605C20.9445 25.8239 21.9097 25.9392 22.5433 26.5728L23.3617 27.3912C24.4316 28.4611 26.1663 28.4611 27.2362 27.3912C28.3062 26.3212 28.3062 24.5865 27.2362 23.5166L26.5493 22.8296C25.8648 22.1451 25.7516 21.0985 26.1233 20.2046C26.495 19.3109 27.3215 18.6301 28.2895 18.6301H29.2603C30.7734 18.6301 32 17.4035 32 15.8904C32 14.3773 30.7734 13.1507 29.2603 13.1507H28.1034C27.2076 13.1507 26.4376 12.532 26.0865 11.7079C25.7293 10.8695 25.8365 9.88308 26.4809 9.23869L27.2362 8.48341C28.3061 7.41348 28.3061 5.67878 27.2362 4.60885C26.1663 3.53892 24.4316 3.53892 23.3616 4.60885L22.5433 5.4272C21.9097 6.06078 20.9445 6.17608 20.1141 5.83951C19.2697 5.49726 18.6301 4.71839 18.6301 3.80724V2.73973C18.6301 1.22662 17.4035 0 15.8904 0ZM16 18.411C17.3315 18.411 18.411 17.3315 18.411 16C18.411 14.6685 17.3315 13.589 16 13.589C14.6685 13.589 13.589 14.6685 13.589 16C13.589 17.3315 14.6685 18.411 16 18.411Z" />
</svg>
